HIERARCHY
ROOT Hips
{
  OFFSET 150.432 88.1888 27.0678
  CHANNELS 6 Xposition Yposition Zposition Zrotation Xrotation Yrotation
  JOINT RightUpLeg
  {
    OFFSET -9.25679 -1.50405 0.000749919
    CHANNELS 3 Zrotation Xrotation Yrotation
    JOINT RightLeg
    {
      OFFSET 0.0460649 -41.9017 0.109432
      CHANNELS 3 Zrotation Xrotation Yrotation
      JOINT RightFoot
      {
        OFFSET 1.7988 -41.6468 0.413135
        CHANNELS 3 Zrotation Xrotation Yrotation
        End Site
        {
          OFFSET 0 -7.69 17.5
        }
      }
    }
  }
  JOINT LeftUpLeg
  {
    OFFSET 9.37007 -1.70178 -0.0772456
    CHANNELS 3 Zrotation Xrotation Yrotation
    JOINT LeftLeg
    {
      OFFSET 0.225295 -41.8622 -0.102498
      CHANNELS 3 Zrotation Xrotation Yrotation
      JOINT LeftFoot
      {
        OFFSET -2.07126 -41.2817 -1.22305
        CHANNELS 3 Zrotation Xrotation Yrotation
        End Site
        {
          OFFSET 0 -7.69 17.5
        }
      }
    }
  }
  JOINT Spine
  {
    OFFSET 0.0614897 14.2979 0.0172263
    CHANNELS 3 Zrotation Xrotation Yrotation
    JOINT Spine1
    {
      OFFSET 0.0253415 9.71429 0.00919728
      CHANNELS 3 Zrotation Xrotation Yrotation
      JOINT Spine2
      {
        OFFSET -0.0163533 10.1275 0.00641818
        CHANNELS 3 Zrotation Xrotation Yrotation
        JOINT Spine3
        {
          OFFSET 0.00964153 9.71178 0.018187
          CHANNELS 3 Zrotation Xrotation Yrotation
          JOINT Neck
          {
            OFFSET -0.0402277 10.3749 0.0917408
            CHANNELS 3 Zrotation Xrotation Yrotation
            JOINT Head
            {
              OFFSET 0.0121048 9.49481 0.108971
              CHANNELS 3 Zrotation Xrotation Yrotation
              End Site
              {
                OFFSET 0 15.95 0
              }
            }
          }
          JOINT RightShoulder
          {
            OFFSET -3.18208 6.946 0.015457
            CHANNELS 3 Zrotation Xrotation Yrotation
            JOINT RightArm
            {
              OFFSET -12.7708 0.0386499 -0.00729584
              CHANNELS 3 Zrotation Xrotation Yrotation
              JOINT RightForeArm
              {
                OFFSET -26.422 0.00272702 0.0331834
                CHANNELS 3 Zrotation Xrotation Yrotation
                JOINT RightHand
                {
                  OFFSET -25.9963 -0.0318335 0.00677283
                  CHANNELS 3 Zrotation Xrotation Yrotation
                  JOINT RightHandThumb1
                  {
                    OFFSET -2.48905 0.190105 3.12053
                    CHANNELS 3 Zrotation Xrotation Yrotation
                    JOINT RightHandThumb2
                    {
                      OFFSET -3.68274 0 0
                      CHANNELS 3 Zrotation Xrotation Yrotation
                      JOINT RightHandThumb3
                      {
                        OFFSET -2.55832 0 0
                        CHANNELS 3 Zrotation Xrotation Yrotation
                        End Site
                        {
                          OFFSET -2.194 0 0
                        }
                      }
                    }
                  }
                  JOINT RightInHandIndex
                  {
                    OFFSET -3.22368 0.508421 1.97842
                    CHANNELS 3 Zrotation Xrotation Yrotation
                    JOINT RightHandIndex1
                    {
                      OFFSET -5.21684 -0.091368 0.999158
                      CHANNELS 3 Zrotation Xrotation Yrotation
                      JOINT RightHandIndex2
                      {
                        OFFSET -3.61937 0 0
                        CHANNELS 3 Zrotation Xrotation Yrotation
                        JOINT RightHandIndex3
                        {
                          OFFSET -2.0521 0 0
                          CHANNELS 3 Zrotation Xrotation Yrotation
                          End Site
                          {
                            OFFSET -1.805 0 0
                          }
                        }
                      }
                    }
                  }
                  JOINT RightInHandMiddle
                  {
                    OFFSET -3.38211 0.517263 0.756737
                    CHANNELS 3 Zrotation Xrotation Yrotation
                    JOINT RightHandMiddle1
                    {
                      OFFSET -5.17411 -0.084 0.313895
                      CHANNELS 3 Zrotation Xrotation Yrotation
                      JOINT RightHandMiddle2
                      {
                        OFFSET -3.94947 0 0
                        CHANNELS 3 Zrotation Xrotation Yrotation
                        JOINT RightHandMiddle3
                        {
                          OFFSET -2.47579 0 0
                          CHANNELS 3 Zrotation Xrotation Yrotation
                          End Site
                          {
                            OFFSET -1.975 0 0
                          }
                        }
                      }
                    }
                  }
                  JOINT RightInHandRing
                  {
                    OFFSET -3.36516 0.537895 -0.128947
                    CHANNELS 3 Zrotation Xrotation Yrotation
                    JOINT RightHandRing1
                    {
                      OFFSET -4.63474 -0.022105 -0.478947
                      CHANNELS 3 Zrotation Xrotation Yrotation
                      JOINT RightHandRing2
                      {
                        OFFSET -3.44238 0 0
                        CHANNELS 3 Zrotation Xrotation Yrotation
                        JOINT RightHandRing3
                        {
                          OFFSET -2.3881 0 0
                          CHANNELS 3 Zrotation Xrotation Yrotation
                          End Site
                          {
                            OFFSET -1.857 0 0
                          }
                        }
                      }
                    }
                  }
                  JOINT RightInHandPinky
                  {
                    OFFSET -3.16105 0.469368 -1.20179
                    CHANNELS 3 Zrotation Xrotation Yrotation
                    JOINT RightHandPinky1
                    {
                      OFFSET -4.14105 -0.022105 -1.09053
                      CHANNELS 3 Zrotation Xrotation Yrotation
                      JOINT RightHandPinky2
                      {
                        OFFSET -2.75653 0 0
                        CHANNELS 3 Zrotation Xrotation Yrotation
                        JOINT RightHandPinky3
                        {
                          OFFSET -1.74189 0 0
                          CHANNELS 3 Zrotation Xrotation Yrotation
                          End Site
                          {
                            OFFSET -1.645 0 0
                          }
                        }
                      }
                    }
                  }
                }
              }
            }
          }
          JOINT LeftShoulder
          {
            OFFSET 3.18966 6.92856 0.062398
            CHANNELS 3 Zrotation Xrotation Yrotation
            JOINT LeftArm
            {
              OFFSET 12.7601 -0.0509086 0.00275124
              CHANNELS 3 Zrotation Xrotation Yrotation
              JOINT LeftForeArm
              {
                OFFSET 26.4828 -0.0571091 -0.0285564
                CHANNELS 3 Zrotation Xrotation Yrotation
                JOINT LeftHand
                {
                  OFFSET 25.9994 -0.0171136 -0.0547064
                  CHANNELS 3 Zrotation Xrotation Yrotation
                  JOINT LeftHandThumb1
                  {
                    OFFSET 2.48905 0.190105 3.12053
                    CHANNELS 3 Zrotation Xrotation Yrotation
                    JOINT LeftHandThumb2
                    {
                      OFFSET 3.68274 0 0
                      CHANNELS 3 Zrotation Xrotation Yrotation
                      JOINT LeftHandThumb3
                      {
                        OFFSET 2.55832 0 0
                        CHANNELS 3 Zrotation Xrotation Yrotation
                        End Site
                        {
                          OFFSET 2.194 0 0
                        }
                      }
                    }
                  }
                  JOINT LeftInHandIndex
                  {
                    OFFSET 3.22368 0.508421 1.97842
                    CHANNELS 3 Zrotation Xrotation Yrotation
                    JOINT LeftHandIndex1
                    {
                      OFFSET 5.21684 -0.091368 0.999158
                      CHANNELS 3 Zrotation Xrotation Yrotation
                      JOINT LeftHandIndex2
                      {
                        OFFSET 3.61937 0 0
                        CHANNELS 3 Zrotation Xrotation Yrotation
                        JOINT LeftHandIndex3
                        {
                          OFFSET 2.0521 0 0
                          CHANNELS 3 Zrotation Xrotation Yrotation
                          End Site
                          {
                            OFFSET 1.805 0 0
                          }
                        }
                      }
                    }
                  }
                  JOINT LeftInHandMiddle
                  {
                    OFFSET 3.38211 0.517263 0.756737
                    CHANNELS 3 Zrotation Xrotation Yrotation
                    JOINT LeftHandMiddle1
                    {
                      OFFSET 5.17411 -0.084 0.313895
                      CHANNELS 3 Zrotation Xrotation Yrotation
                      JOINT LeftHandMiddle2
                      {
                        OFFSET 3.94947 0 0
                        CHANNELS 3 Zrotation Xrotation Yrotation
                        JOINT LeftHandMiddle3
                        {
                          OFFSET 2.47579 0 0
                          CHANNELS 3 Zrotation Xrotation Yrotation
                          End Site
                          {
                            OFFSET 1.975 0 0
                          }
                        }
                      }
                    }
                  }
                  JOINT LeftInHandRing
                  {
                    OFFSET 3.36516 0.537895 -0.128947
                    CHANNELS 3 Zrotation Xrotation Yrotation
                    JOINT LeftHandRing1
                    {
                      OFFSET 4.63474 -0.022105 -0.478947
                      CHANNELS 3 Zrotation Xrotation Yrotation
                      JOINT LeftHandRing2
                      {
                        OFFSET 3.44238 0 0
                        CHANNELS 3 Zrotation Xrotation Yrotation
                        JOINT LeftHandRing3
                        {
                          OFFSET 2.3881 0 0
                          CHANNELS 3 Zrotation Xrotation Yrotation
                          End Site
                          {
                            OFFSET 1.857 0 0
                          }
                        }
                      }
                    }
                  }
                  JOINT LeftInHandPinky
                  {
                    OFFSET 3.16105 0.469368 -1.20179
                    CHANNELS 3 Zrotation Xrotation Yrotation
                    JOINT LeftHandPinky1
                    {
                      OFFSET 4.14105 -0.022105 -1.09053
                      CHANNELS 3 Zrotation Xrotation Yrotation
                      JOINT LeftHandPinky2
                      {
                        OFFSET 2.75653 0 0
                        CHANNELS 3 Zrotation Xrotation Yrotation
                        JOINT LeftHandPinky3
                        {
                          OFFSET 1.74189 0 0
                          CHANNELS 3 Zrotation Xrotation Yrotation
                          End Site
                          {
                            OFFSET 1.645 0 0
                          }
                        }
                      }
                    }
                  }
                }
              }
            }
          }
        }
      }
    }
  }
}
MOTION
Frames:	6
Frame Time:	0.00833333
154.05 87.8896 29.6074 23.2822 -25.3772 -144.19 9.68573 -66.0463 22.7383 -0.46497 27.7637 16.978 9.27894 1.90117 -5.60142 38.4569 -47.7896 50.5424 1.16712 31.2564 12.6992 -10.8774 -1.58064 0.503155 -12.1751 11.0796 13.2961 -2.79735 3.58632 2.91207 -4.64634 6.17963 4.60414 -0.108201 0.0497098 -0.285795 -0.108225 0.0500957 -0.285318 -1.91227 0.928457 -5.16434 4.94565 -1.58661 3.077 58.5607 11.9216 76.087 8.75574 -47.6412 2.13125 2.87906 -20.9188 3.7948 28.184 10.7294 19.1592 3.84663e-15 6.36111e-15 -10 8.75048e-16 9.54166e-15 -10 6.07536e-15 -3.18055e-15 3.47873e-16 19.9818 0.871897 2.3964 24 -3.18055e-15 3.18055e-15 20 -1.59028e-15 -3.18055e-15 6.07536e-15 -3.18055e-15 3.47873e-16 20 3.18055e-15 -7.95139e-16 24 0 4.77083e-15 20 1.59028e-15 -0 6.07536e-15 -3.18055e-15 3.47873e-16 19.9748 -1.02565 -2.81938 24 3.18055e-15 -0 20 -3.18055e-15 -0 6.07536e-15 -3.18055e-15 3.47873e-16 19.7815 -3.00948 -8.30515 24 -1.59028e-15 -0 20 1.19271e-15 6.36111e-15 -4.82675 -9.12645 -25.3736 -26.1801 35.8595 -75.4452 120.851 -77.3891 107.654 0.297128 37.7854 21.1229 -28.184 10.7294 -19.1592 5.40525e-15 -3.18055e-15 10 1.29185e-14 0 10 3.03147e-15 -9.54166e-15 -8.94531e-16 -19.9818 0.871897 -2.3964 -24 -6.36111e-15 3.18055e-15 -20 -4.77083e-15 3.18055e-15 3.03147e-15 -9.54166e-15 -8.94531e-16 -20 3.18055e-15 6.36111e-15 -24 3.18055e-15 3.18055e-15 -20 -3.18055e-15 3.18055e-15 3.03147e-15 -9.54166e-15 -8.94531e-16 -19.9748 -1.02565 2.81938 -24 3.18055e-15 6.36111e-15 -20 -6.36111e-15 1.27222e-14 3.03147e-15 -9.54166e-15 -8.94531e-16 -19.7815 -3.00948 8.30515 -24 -3.18055e-15 -0 -20 0 -0 
154.007 87.8852 29.6501 23.2208 -25.4131 -144.383 9.87909 -66.0315 22.9245 -0.508076 27.7236 17.0943 9.31223 1.93118 -5.57509 38.4955 -47.7211 50.5803 1.11924 31.34 12.7863 -10.8762 -1.66832 0.550882 -12.0983 11.0747 13.0979 -2.78154 3.56665 2.86238 -4.61949 6.13974 4.52505 -0.120701 0.0493024 -0.265606 -0.120731 0.0496937 -0.265125 -2.1402 0.930525 -4.79832 4.96523 -1.54124 2.91971 59.1787 12.3049 75.4793 9.27527 -50.7495 4.62603 2.40597 -18.5296 2.63436 28.184 10.7294 19.1592 6.36512e-16 3.18055e-15 -10 -6.3916e-15 9.54166e-15 -10 -1.49089e-16 3.18055e-15 -0 19.9818 0.871897 2.3964 24 -6.36111e-15 -3.18055e-15 20 4.77083e-15 -0 -1.49089e-16 3.18055e-15 -0 20 3.18055e-15 -0 24 -1.59028e-15 -1.59028e-15 20 0 -0 -1.49089e-16 3.18055e-15 -0 19.9748 -1.02565 -2.81938 24 1.59028e-15 4.77083e-15 20 1.59028e-15 -6.36111e-15 -1.49089e-16 3.18055e-15 -0 19.7815 -3.00948 -8.30515 24 0 -3.18055e-15 20 2.5842e-15 -0 -4.83785 -9.09438 -25.4583 -25.8625 36.0543 -75.7342 116.065 -77.3398 102.6 -0.288148 37.8273 21.478 -28.184 10.7294 -19.1592 8.56722e-15 6.36111e-15 10 3.22962e-15 0 10 1.2921e-15 -3.18055e-15 -3.13086e-15 -19.9818 0.871897 -2.3964 -24 1.27222e-14 -0 -20 -1.59028e-15 6.36111e-15 1.2921e-15 -3.18055e-15 -3.13086e-15 -20 -9.54166e-15 -1.59028e-15 -24 0 -3.18055e-15 -20 4.77083e-15 3.18055e-15 1.2921e-15 -3.18055e-15 -3.13086e-15 -19.9748 -1.02565 2.81938 -24 0 1.90833e-14 -20 -3.18055e-15 -0 1.2921e-15 -3.18055e-15 -3.13086e-15 -19.7815 -3.00948 8.30515 -24 -3.18055e-15 -3.18055e-15 -20 6.36111e-15 1.90833e-14 
153.963 87.8806 29.6997 23.1591 -25.4515 -144.576 10.0636 -66.0234 23.0996 -0.550397 27.6767 17.203 9.35213 1.97286 -5.53667 38.5315 -47.6674 50.6176 1.07778 31.4324 12.8759 -10.8743 -1.75766 0.603622 -12.0205 11.0696 12.8858 -2.76572 3.54615 2.80906 -4.59251 6.09813 4.43994 -0.133061 0.0488875 -0.244484 -0.133094 0.0492826 -0.243994 -2.36556 0.9323 -4.4155 4.98285 -1.4943 2.75638 59.7836 12.7096 74.8452 9.94172 -52.1755 6.64005 2.13882 -17.8008 2.2772 28.184 10.7294 19.1592 1.06545e-15 3.18055e-15 -10 2.35457e-15 -9.54166e-15 -10 -1.09332e-15 3.18055e-15 -5.96354e-16 19.9818 0.871897 2.3964 24 6.36111e-15 6.36111e-15 20 -3.18055e-15 -3.18055e-15 -1.09332e-15 3.18055e-15 -5.96354e-16 20 0 -3.97569e-15 24 -1.59028e-15 -1.59028e-15 20 -1.59028e-15 1.59028e-15 -1.09332e-15 3.18055e-15 -5.96354e-16 19.9748 -1.02565 -2.81938 24 4.77083e-15 -0 20 -7.95139e-16 3.18055e-15 -1.09332e-15 3.18055e-15 -5.96354e-16 19.7815 -3.00948 -8.30515 24 -1.59028e-15 -3.18055e-15 20 0 6.36111e-15 -4.84662 -9.05988 -25.5535 -25.52 36.2535 -76.0934 110.521 -77.168 96.7625 -0.965924 37.7346 21.9012 -28.184 10.7294 -19.1592 1.14051e-14 -1.43125e-14 10 -2.46587e-16 -3.18055e-15 10 -9.93923e-17 -3.18055e-15 6.95746e-16 -19.9818 0.871897 -2.3964 -24 3.18055e-15 -0 -20 -1.59028e-15 1.27222e-14 -9.93923e-17 -3.18055e-15 6.95746e-16 -20 -9.54166e-15 3.18055e-15 -24 -3.18055e-15 -3.18055e-15 -20 -3.18055e-15 1.59028e-14 -9.93923e-17 -3.18055e-15 6.95746e-16 -19.9748 -1.02565 2.81938 -24 -3.18055e-15 -6.36111e-15 -20 3.18055e-15 6.36111e-15 -9.93923e-17 -3.18055e-15 6.95746e-16 -19.7815 -3.00948 8.30515 -24 -6.36111e-15 -1.59028e-15 -20 -3.18055e-15 6.36111e-15 
153.917 87.8726 29.7548 23.0998 -25.4859 -144.764 10.2297 -66.0148 23.2383 -0.698515 27.551 17.1673 9.49636 2.09838 -5.30234 38.569 -47.6073 50.6615 1.03321 31.5162 12.9632 -10.872 -1.83713 0.645452 -11.9334 11.0677 12.6533 -2.74783 3.5249 2.75064 -4.56211 6.0547 4.34663 -0.146379 0.0484648 -0.222497 -0.146416 0.0488616 -0.222005 -2.60855 0.926223 -4.01714 4.92448 -1.43927 2.74686 60.4464 12.9917 74.109 10.6115 -52.7238 8.36421 1.92879 -17.9762 2.34302 28.184 10.7294 19.1592 4.28361e-15 -3.18055e-15 -10 -5.40525e-15 -3.18055e-15 -10 -8.94531e-16 3.18055e-15 7.95139e-16 19.9818 0.871897 2.3964 24 0 2.38542e-15 20 0 -3.18055e-15 -8.94531e-16 3.18055e-15 7.95139e-16 20 -3.18055e-15 5.96354e-15 24 0 9.54166e-15 20 -4.77083e-15 -1.59028e-15 -8.94531e-16 3.18055e-15 7.95139e-16 19.9748 -1.02565 -2.81938 24 -1.59028e-15 -3.18055e-15 20 0 -0 -8.94531e-16 3.18055e-15 7.95139e-16 19.7815 -3.00948 -8.30515 24 4.77083e-15 9.54166e-15 20 2.38542e-15 3.18055e-15 -4.86021 -9.02086 -25.651 -25.139 36.4501 -76.4954 104.976 -76.8544 90.907 -1.76426 37.6085 22.4089 -28.184 10.7294 -19.1592 -1.40204e-15 7.95139e-15 10 -3.14015e-15 6.36111e-15 10 -2.48481e-15 -3.18055e-15 1.98785e-16 -19.9818 0.871897 -2.3964 -24 0 -1.27222e-14 -20 3.18055e-15 -0 -2.48481e-15 -3.18055e-15 1.98785e-16 -20 -9.54166e-15 -3.18055e-15 -24 0 -9.54166e-15 -20 -4.77083e-15 3.18055e-15 -2.48481e-15 -3.18055e-15 1.98785e-16 -19.9748 -1.02565 2.81938 -24 0 3.18055e-15 -20 4.77083e-15 -3.18055e-15 -2.48481e-15 -3.18055e-15 1.98785e-16 -19.7815 -3.00948 8.30515 -24 0 -1.59028e-15 -20 3.18055e-15 -6.36111e-15 
153.869 87.8642 29.813 23.0416 -25.5238 -144.954 10.4069 -66.0103 23.3866 -0.77122 27.4947 17.2396 9.55939 2.15439 -5.19719 38.6082 -47.5487 50.7171 0.994179 31.5978 13.0483 -10.8661 -1.91527 0.682926 -11.8465 11.0605 12.4091 -2.73035 3.50179 2.68929 -4.53228 6.00806 4.24838 -0.159092 0.0480336 -0.199698 -0.159136 0.0484298 -0.199188 -2.8407 0.917374 -3.60394 4.94051 -1.39925 2.58856 61.0149 13.4088 73.385 11.3969 -53.3604 10.2725 1.67605 -18.0654 2.36538 28.184 10.7294 19.1592 1.30756e-14 3.18055e-15 -10 -1.41296e-15 0 -10 7.7526e-15 4.77083e-15 -7.95139e-16 19.9818 0.871897 2.3964 24 0 -3.18055e-15 20 -1.59028e-15 -3.18055e-15 7.7526e-15 4.77083e-15 -7.95139e-16 20 0 -5.36719e-15 24 1.59028e-15 -3.18055e-15 20 0 1.27222e-14 7.7526e-15 4.77083e-15 -7.95139e-16 19.9748 -1.02565 -2.81938 24 -4.77083e-15 3.18055e-15 20 2.38542e-15 4.77083e-15 7.7526e-15 4.77083e-15 -7.95139e-16 19.7815 -3.00948 -8.30515 24 7.95139e-16 1.59028e-15 20 1.59028e-15 9.54166e-15 -4.87174 -8.97533 -25.756 -24.7116 36.6486 -76.9334 99.4868 -76.4304 85.0839 -2.66388 37.3791 23.0424 -28.184 10.7294 -19.1592 -1.82758e-15 -7.95139e-15 10 4.44073e-15 0 10 -7.95139e-16 -1.27222e-14 -7.95139e-16 -19.9818 0.871897 -2.3964 -24 3.18055e-15 6.36111e-15 -20 0 -0 -7.95139e-16 -1.27222e-14 -7.95139e-16 -20 0 4.77083e-15 -24 0 1.90833e-14 -20 -4.77083e-15 3.18055e-15 -7.95139e-16 -1.27222e-14 -7.95139e-16 -19.9748 -1.02565 2.81938 -24 3.18055e-15 3.18055e-15 -20 4.77083e-15 6.36111e-15 -7.95139e-16 -1.27222e-14 -7.95139e-16 -19.7815 -3.00948 8.30515 -24 0 4.77083e-15 -20 6.36111e-15 6.36111e-15 
153.816 87.8571 29.8738 22.9853 -25.5511 -145.144 10.5803 -65.9968 23.523 -0.82119 27.4563 17.3583 9.60015 2.18877 -5.14699 38.6489 -47.4836 50.7586 0.944165 31.683 13.1535 -10.8593 -1.99469 0.711809 -11.7585 11.056 12.1569 -2.71265 3.47914 2.62583 -4.50203 5.96197 4.14649 -0.171546 0.0475936 -0.175934 -0.171591 0.0479863 -0.175418 -3.06858 0.897849 -3.17354 4.90166 -1.35616 2.54716 61.6669 13.7091 72.563 12.2521 -53.9537 12.3117 1.39247 -18.1712 2.37979 28.184 10.7294 19.1592 -7.26664e-15 0 -10 -2.01851e-15 0 -10 2.98177e-15 1.59028e-15 -7.95139e-16 19.9818 0.871897 2.3964 24 -1.59028e-15 -2.38542e-15 20 0 -1.59028e-15 2.98177e-15 1.59028e-15 -7.95139e-16 20 -1.59028e-15 2.38542e-15 24 -1.59028e-15 2.38542e-15 20 3.18055e-15 9.54166e-15 2.98177e-15 1.59028e-15 -7.95139e-16 19.9748 -1.02565 -2.81938 24 -3.18055e-15 1.59028e-15 20 1.59028e-15 6.36111e-15 2.98177e-15 1.59028e-15 -7.95139e-16 19.7815 -3.00948 -8.30515 24 7.95139e-16 9.54166e-15 20 7.95139e-16 -1.59028e-15 -4.87844 -8.94032 -25.8744 -24.2719 36.8507 -77.3461 96.4073 -75.9121 81.6767 -3.74242 37.6177 23.7186 -28.184 10.7294 -19.1592 -5.60818e-16 3.18055e-15 10 5.52854e-15 -1.59028e-15 10 -9.93923e-16 0 -9.93923e-16 -19.9818 0.871897 -2.3964 -24 -3.18055e-15 -6.36111e-15 -20 1.59028e-15 -3.18055e-15 -9.93923e-16 0 -9.93923e-16 -20 0 -4.77083e-15 -24 3.18055e-15 -6.36111e-15 -20 1.59028e-15 -6.36111e-15 -9.93923e-16 0 -9.93923e-16 -19.9748 -1.02565 2.81938 -24 3.18055e-15 -0 -20 -1.59028e-15 -6.36111e-15 -9.93923e-16 0 -9.93923e-16 -19.7815 -3.00948 8.30515 -24 6.36111e-15 -3.18055e-15 -20 3.18055e-15 -0 
